PathFileType	4	(X/Y/Z)	Walk4.trc
DataRate	CameraRate	NumFrames	NumMarkers	Units	OrigDataRate	OrigDataStartFrame	OrigNumFrames
200.000000	200.000000	4	58	mm	200.000000	579	662
Frame#	Times		RLFC		RBHD		RMT5		RToe		RTB2		RMT1		LACR1		LElbow		LUA1		LWRR		C7		LCAR		RCAL		RFA1		RCAR		RTH3		LLFC		LTH3		LPSI		LASI		LMMAL		RPSI		LTB2		LCAL		LMT5		RLMAL		RFHD		LTH2		RElbow		RWRR		RMFC		LElbowM		LTB1		LToe		RTH1		RTH4		LTH4		T10		LTH1		RBack		RWRU		LTB3		LTB4		LBHD		LWRU		RTB4		LLMAL		LMT1		RTB3		LMFC		RTB1		RASI		RTH2		LFHD		RACR1		RUA1		RMMAL		RElbowM
			X1	Y1	Z1	X2	Y2	Z2	X3	Y3	Z3	X4	Y4	Z4	X5	Y5	Z5	X6	Y6	Z6	X7	Y7	Z7	X8	Y8	Z8	X9	Y9	Z9	X10	Y10	Z10	X11	Y11	Z11	X12	Y12	Z12	X13	Y13	Z13	X14	Y14	Z14	X15	Y15	Z15	X16	Y16	Z16	X17	Y17	Z17	X18	Y18	Z18	X19	Y19	Z19	X20	Y20	Z20	X21	Y21	Z21	X22	Y22	Z22	X23	Y23	Z23	X24	Y24	Z24	X25	Y25	Z25	X26	Y26	Z26	X27	Y27	Z27	X28	Y28	Z28	X29	Y29	Z29	X30	Y30	Z30	X31	Y31	Z31	X32	Y32	Z32	X33	Y33	Z33	X34	Y34	Z34	X35	Y35	Z35	X36	Y36	Z36	X37	Y37	Z37	X38	Y38	Z38	X39	Y39	Z39	X40	Y40	Z40	X41	Y41	Z41	X42	Y42	Z42	X43	Y43	Z43	X44	Y44	Z44	X45	Y45	Z45	X46	Y46	Z46	X47	Y47	Z47	X48	Y48	Z48	X49	Y49	Z49	X50	Y50	Z50	X51	Y51	Z51	X52	Y52	Z52	X53	Y53	Z53	X54	Y54	Z54	X55	Y55	Z55	X56	Y56	Z56	X57	Y57	Z57	X58	Y58	Z58

579	2.895	425.45	489.55	140.8	444.3	1596.3	-47.91	179.52	35.956	116.18	264.85	22.046	78.574	305.71	288.23	128.78	219.09	32.715	40.364	495.86	1403.1	-153.9	354.37	1091.3	-263.9	426.22	1212.2	-229.41	335.04	809.71	-271.93	414.9	1466.6	21.273	329.85	952.92	-273.36	60.985	155.95	38.653	497.76	912.8	305.41	602.44	789.18	288.92	431.08	536.92	146.4	570.69	521.11	-104.74	568.08	582.74	-111.6	318.54	1029.1	-32.414	514.74	1020.1	-139.08	625.81	72.455	13.705	310.39	1030.3	36.557	629.03	309.85	-85.941	542.99	32.579	-21.467	722.43	30.325	-82.899	120.52	152.26	100.98	621.45	1635.1	-19.357	592.8	694.44	-84.589	447.32	1066.6	308.04	593.56	833.4	237.84	396.92	464.52	16.317	309.79	1094.4	-191.24	626.18	403.16	-15.077	791.73	64.474	-22.047	430.53	724.46	178.53	434.49	629.37	165.14	544.74	672.21	-135.6	333.26	1212.2	20.423	519.97	759.78	-155.29	404.88	1354.5	176.56	528.11	795.79	276.18	631.61	217.73	-14.809	627.91	310.26	-13.732	447.71	1587.9	88.789	398.38	773.11	-254.67	313.42	283.2	52.814	606.97	61.021	-69.177	755.77	32.929	-8.6709	248.24	223.01	51.973	544.23	494.01	20.804	384.49	349.84	57.267	485.48	976.48	165.85	497.29	634.44	126.01	623.19	1632.2	55.626	534.59	1407.6	167.6	511.18	1227.8	256.52	148.82	142.29	23.909	403.58	1066.8	233.14
580	2.9	436.21	489.26	141.75	449.47	1596.4	-48.527	183.02	38.371	116.38	266.07	22.296	78.734	314.18	290.18	130.05	220.92	34.043	40.596	501.04	1403.3	-154.36	360.9	1090.9	-264.3	432.31	1212.1	-229.71	342.99	809.29	-272.58	419.97	1466.8	20.731	337.1	952.45	-273.88	67.391	162.71	41.045	501.42	912.94	304.72	605.34	788.66	288.37	441.31	536.61	147.16	575.44	521.33	-105.06	573.66	583.63	-111.69	323.67	1029.2	-32.679	520.02	1020.6	-139.44	626.26	72.264	13.705	315.52	1030.1	36.292	631.83	309.41	-86.179	543.2	32.79	-21.592	722.63	29.803	-83.328	126.98	156.88	102.92	626.66	1635.2	-20.044	597.92	695.39	-84.382	451.78	1067	307.26	596.8	832.93	237.25	407.67	463.97	16.939	316.37	1093.8	-191.58	629.93	402.84	-15.406	792.84	63.501	-22.363	438.51	724.3	178.37	443.66	629.12	165.34	550.22	673.06	-135.75	338.25	1212.4	19.998	525.4	760.57	-155.61	410.04	1354.8	176.14	531.09	795.72	275.54	633.49	217.37	-14.942	630.73	309.93	-13.975	452.91	1588.1	88.174	406.52	772.95	-255.45	321.62	284.79	54.083	607.37	60.846	-69.253	756.28	32.526	-8.9779	255.52	225.58	53.482	549.18	494.73	20.718	393.73	350.37	58.235	489.85	976.68	165.43	506.2	634.81	125.91	628.39	1632.3	54.949	539.75	1407.8	166.94	516.16	1228.1	255.75	154.73	146.58	25.707	408.08	1067.5	232.34
581	2.905	447.06	489.05	142.69	454.6	1596.6	-49.123	187.04	40.963	116.64	267.8	22.661	78.934	322.93	292.13	131.26	223.24	35.596	40.863	506.2	1403.6	-154.8	367.43	1090.5	-264.73	438.39	1211.9	-230.03	351.04	808.86	-273.21	424.99	1467	20.201	344.39	951.96	-274.4	74.128	169.31	43.521	505.05	913.07	304.04	608.21	788.14	287.82	451.59	536.37	147.92	579.98	521.47	-105.39	578.93	584.39	-111.9	328.75	1029.3	-32.925	525.22	1021.2	-139.81	626.66	72.086	13.729	320.62	1029.9	36.04	634.55	308.98	-86.401	543.38	32.973	-21.704	722.81	29.359	-83.738	133.83	161.42	104.87	631.82	1635.2	-20.709	602.98	696.18	-84.446	456.2	1067.4	306.49	600.02	832.47	236.67	418.56	463.55	17.554	322.95	1093.1	-191.93	633.59	402.52	-15.72	793.93	62.601	-22.67	446.56	724.17	178.23	452.89	628.93	165.56	555.48	673.8	-136.01	343.22	1212.6	19.579	530.69	761.28	-155.99	415.14	1355.1	175.71	534.04	795.66	274.91	635.31	217.01	-15.056	633.47	309.61	-14.207	458.07	1588.4	87.58	414.78	772.83	-256.23	330.03	286.44	55.298	607.74	60.692	-69.311	756.76	32.219	-9.2543	263.08	228.18	54.957	554.07	495.47	20.691	403.13	351	59.154	494.18	976.86	165.04	515.18	635.23	125.82	633.56	1632.4	54.293	544.85	1408.1	166.31	521.09	1228.3	255.01	160.96	150.86	27.49	412.53	1068.1	231.57
582	2.91	457.95	488.92	143.62	459.69	1596.8	-49.697	191.61	43.712	116.97	270.12	23.167	79.179	331.93	294.05	132.4	226.12	37.375	41.177	511.32	1403.8	-155.23	373.96	1090.1	-265.17	444.46	1211.8	-230.36	359.18	808.43	-273.83	429.95	1467.2	19.684	351.73	951.46	-274.92	81.173	175.69	46.053	508.64	913.18	303.37	611.08	787.62	287.27	461.9	536.2	148.68	584.31	521.53	-105.73	583.87	584.98	-112.24	333.8	1029.3	-33.154	530.35	1021.7	-140.19	627.02	71.917	13.776	325.7	1029.7	35.799	637.21	308.53	-86.599	543.54	33.127	-21.801	722.97	28.98	-84.124	141.04	165.86	106.82	636.95	1635.2	-21.352	607.99	696.75	-84.788	460.56	1067.8	305.74	603.22	832.02	236.1	429.54	463.28	18.157	329.53	1092.4	-192.31	637.15	402.19	-16.007	794.98	61.759	-22.964	454.65	724.09	178.1	462.16	628.81	165.81	560.5	674.42	-136.36	348.17	1212.7	19.167	535.85	761.91	-156.44	420.18	1355.5	175.29	536.98	795.59	274.28	637.06	216.67	-15.148	636.13	309.29	-14.418	463.19	1588.7	87.009	423.16	772.73	-257	338.64	288.14	56.438	608.08	60.558	-69.351	757.22	31.986	-9.4977	270.88	230.79	56.374	558.88	496.22	20.735	412.67	351.71	60.008	498.48	977.01	164.71	524.2	635.7	125.76	638.69	1632.5	53.659	549.89	1408.3	165.72	525.97	1228.4	254.3	167.5	155.1	29.244	416.93	1068.7	230.82
